<svg xmlns="http://www.w3.org/2000/svg" fill="currentColor" viewBox="0 0 180 37"><path fill="currentColor" d="M89.14 6.79c0 .65-.63 1.18-1.41 1.18s-1.42-.53-1.42-1.18.64-1.18 1.42-1.18c.78 0 1.41.53 1.41 1.18zm-3.08 7.77c0 .65-.63 1.17-1.41 1.17s-1.42-.52-1.42-1.17.63-1.17 1.42-1.17 1.41.52 1.41 1.17zm3.08 0c0 .65-.63 1.17-1.41 1.17s-1.42-.52-1.42-1.17.63-1.17 1.42-1.17 1.41.52 1.41 1.17zM29.45 6.79c0 .65-.64 1.18-1.42 1.18s-1.41-.53-1.41-1.18.63-1.18 1.41-1.18c.78 0 1.42.53 1.42 1.18zm-3.09 7.77c0 .65-.63 1.17-1.41 1.17s-1.42-.52-1.42-1.17.64-1.17 1.42-1.17 1.41.52 1.41 1.17zm3.09 0c0 .65-.64 1.17-1.42 1.17s-1.41-.52-1.41-1.17.63-1.17 1.41-1.17c.78 0 1.42.52 1.42 1.17zM178.26 2.62h-13.47c-.53 0-1.02.29-1.28.75l-3.63 6.23-2.1-3.51c-.5-.87-1.43-1.41-2.44-1.41s-1.94.54-2.44 1.41l-11.27 18.93-.38.64c-.39.66.01 1.49.78 1.49h1.58c.48 0 .92-.27 1.16-.7l2.32-3.86h6.29l2.33 3.86c.24.43.68.7 1.16.7h1.58c.77 0 1.17-.83.78-1.49l-.38-.64-3.06-5.12-2.72-4.53 5.99-10.01.34-.58c.25-.42.66-.68 1.13-.68h9.01c.77 0 1.17-.83.78-1.49l-.38-.64c-.26-.46-.75-.75-1.28-.75zm-24.52 13.55h-5.11l2.57-4.28 2.54 4.28zm-31.52-13.55H110.65c-.94 0-1.77.54-2.2 1.39l-7.25 12.34V5.09c0-.55-.48-1-1.05-1h-1.86c-.58 0-1.05.45-1.05 1v19.21c0 .55.47 1 1.05 1h1.86c.57 0 1.05-.45 1.05-1V18.9l1.35-2.27 5.87 9.82c.43.72 1.25 1.16 2.11 1.16h2.03c.77 0 1.17-.83.78-1.49l-7.09-11.85 6.06-10.35.38-.64c.26-.46.75-.75 1.28-.75zm5.46-1c-4.29 0-7.76 3.57-7.76 7.97 0 4.41 3.47 7.98 7.76 7.98 4.3 0 7.77-3.57 7.77-7.98 0-4.4-3.47-7.97-7.77-7.97zm0 12.61c-2.61 0-4.73-2.15-4.73-4.81 0-2.65 2.12-4.8 4.73-4.8 2.62 0 4.74 2.15 4.74 4.8 0 2.66-2.12 4.81-4.74 4.81z"/></svg>