<svg xmlns="http://www.w3.org/2000/svg" fill="currentColor" viewBox="0 0 283 64"><path fill="currentColor" d="M141.04 16c-11.04 0-19 7.2-19 18s8.96 18 20 18c6.67 0 12.55-2.64 16.19-7.09l-7.65-4.42c-2.02 2.21-5.09 3.5-8.54 3.5-4.79 0-8.86-2.5-10.37-6.5h28.02c.22-1.12.35-2.28.35-3.5 0-10.79-7.96-17.99-19-17.99zm-9.46 14.5c1.25-3.99 4.67-6.5 9.45-6.5 4.79 0 8.21 2.51 9.45 6.5h-18.9zM248.72.36H260.77v14.37h12.92V.36h12.04v41.84h-12.04v-14.4h-12.92v14.4h-12.05V.36zM11.05 3.9c3.3 0 6 2.64 6 5.9v41.84H4.98V9.8C4.98 6.54 7.68 3.9 11.05 3.9zm7.78 24.4c0-6.89 5.30-12.64 12.25-12.64s12.25 5.75 12.25 12.64c0 6.888-5.3 12.64-12.25 12.64S18.83 35.28 18.83 28.4zm19.42 2.92c-.64 1.59-2.05 2.62-3.98 2.62-2.3 0-4.3-1.42-4.3-3.39 0-1.96 2-3.39 4.3-3.39 1.93 0 3.34 1.03 3.98 2.62v4.26zM36.3 0h12.05v6.63h.17a8.04 8.04 0 0 1 5.59-2.11c5.96 0 9.95 3.9 9.95 12.14V23a7.98 7.98 0 0 1-5.4-2.1h-.16v13.39c0 5.17-4.27 9.07-9.95 9.07-6.38 0-11.24-4.47-11.24-11.04h6.02c0 2.18 1.72 3.63 3.98 3.63 2.4 0 3.2-1.9 3.2-3.63V12.05C36.3 5.02 32.68 0 27.32 0c-3.66 0-6.86 1.59-8.23 4.14H22V0z"/></svg>